<mxfile host="app.diagrams.net" agent="Mozilla/5.0 (Windows NT 10.0; Win64; x64) AppleWebKit/537.36 (KHTML, like Gecko) Chrome/140.0.0.0 Safari/537.36" version="28.2.5">
  <diagram name="Page-1" id="sf0nebSQ5NySBccjmQlK">
    <mxGraphModel dx="786" dy="451" grid="1" gridSize="10" guides="1" tooltips="1" connect="1" arrows="1" fold="1" page="1" pageScale="1" pageWidth="850" pageHeight="1100" math="0" shadow="0">
      <root>
        <mxCell id="0" />
        <mxCell id="1" parent="0" />
        <mxCell id="fN71p4ZlffjuJ4oiOG8y-2" value="Emoloyee&lt;br&gt;login" style="shape=parallelogram;perimeter=parallelogramPerimeter;whiteSpace=wrap;html=1;fixedSize=1;" vertex="1" parent="1">
          <mxGeometry x="60" y="280" width="120" height="60" as="geometry" />
        </mxCell>
        <mxCell id="fN71p4ZlffjuJ4oiOG8y-5" value="" style="endArrow=classic;html=1;rounded=0;exitX=0.5;exitY=1;exitDx=0;exitDy=0;entryX=0.5;entryY=0;entryDx=0;entryDy=0;" edge="1" parent="1" target="fN71p4ZlffjuJ4oiOG8y-10">
          <mxGeometry relative="1" as="geometry">
            <mxPoint x="119.5" y="460" as="sourcePoint" />
            <mxPoint x="120" y="510" as="targetPoint" />
            <Array as="points" />
          </mxGeometry>
        </mxCell>
        <mxCell id="fN71p4ZlffjuJ4oiOG8y-8" value="" style="endArrow=classic;html=1;rounded=0;exitX=0.5;exitY=1;exitDx=0;exitDy=0;" edge="1" parent="1">
          <mxGeometry relative="1" as="geometry">
            <mxPoint x="479.5" y="340" as="sourcePoint" />
            <mxPoint x="480" y="400" as="targetPoint" />
            <Array as="points" />
          </mxGeometry>
        </mxCell>
        <mxCell id="fN71p4ZlffjuJ4oiOG8y-9" value="login" style="edgeLabel;resizable=0;html=1;;align=center;verticalAlign=middle;" connectable="0" vertex="1" parent="fN71p4ZlffjuJ4oiOG8y-8">
          <mxGeometry relative="1" as="geometry" />
        </mxCell>
        <mxCell id="fN71p4ZlffjuJ4oiOG8y-10" value="Request&lt;br&gt;leave" style="rhombus;whiteSpace=wrap;html=1;" vertex="1" parent="1">
          <mxGeometry x="80" y="520" width="80" height="80" as="geometry" />
        </mxCell>
        <mxCell id="fN71p4ZlffjuJ4oiOG8y-21" value="" style="endArrow=classic;html=1;rounded=0;" edge="1" parent="1">
          <mxGeometry relative="1" as="geometry">
            <mxPoint x="119.5" y="600" as="sourcePoint" />
            <mxPoint x="119.5" y="678" as="targetPoint" />
            <Array as="points">
              <mxPoint x="119.5" y="630" />
            </Array>
          </mxGeometry>
        </mxCell>
        <mxCell id="fN71p4ZlffjuJ4oiOG8y-22" value="NO" style="edgeLabel;resizable=0;html=1;;align=center;verticalAlign=middle;" connectable="0" vertex="1" parent="fN71p4ZlffjuJ4oiOG8y-21">
          <mxGeometry relative="1" as="geometry" />
        </mxCell>
        <mxCell id="fN71p4ZlffjuJ4oiOG8y-24" value="View Leave&lt;br&gt;balance" style="rounded=1;whiteSpace=wrap;html=1;" vertex="1" parent="1">
          <mxGeometry x="60" y="680" width="120" height="60" as="geometry" />
        </mxCell>
        <mxCell id="fN71p4ZlffjuJ4oiOG8y-25" value="" style="endArrow=classic;html=1;rounded=0;entryX=0;entryY=0.5;entryDx=0;entryDy=0;exitX=1;exitY=0.5;exitDx=0;exitDy=0;" edge="1" parent="1" source="fN71p4ZlffjuJ4oiOG8y-24" target="fN71p4ZlffjuJ4oiOG8y-27">
          <mxGeometry width="50" height="50" relative="1" as="geometry">
            <mxPoint x="180" y="720" as="sourcePoint" />
            <mxPoint x="230" y="719.5" as="targetPoint" />
          </mxGeometry>
        </mxCell>
        <mxCell id="fN71p4ZlffjuJ4oiOG8y-27" value="Notify&lt;br&gt;Employee" style="rounded=1;whiteSpace=wrap;html=1;" vertex="1" parent="1">
          <mxGeometry x="240" y="680" width="120" height="60" as="geometry" />
        </mxCell>
        <mxCell id="fN71p4ZlffjuJ4oiOG8y-28" value="" style="endArrow=classic;html=1;rounded=0;entryX=0;entryY=0.5;entryDx=0;entryDy=0;" edge="1" parent="1" target="fN71p4ZlffjuJ4oiOG8y-29">
          <mxGeometry width="50" height="50" relative="1" as="geometry">
            <mxPoint x="360" y="709.5" as="sourcePoint" />
            <mxPoint x="420" y="710" as="targetPoint" />
          </mxGeometry>
        </mxCell>
        <mxCell id="fN71p4ZlffjuJ4oiOG8y-29" value="Update&amp;nbsp;&lt;br&gt;Leave" style="rounded=1;whiteSpace=wrap;html=1;" vertex="1" parent="1">
          <mxGeometry x="425" y="680" width="120" height="60" as="geometry" />
        </mxCell>
        <mxCell id="fN71p4ZlffjuJ4oiOG8y-30" value="" style="endArrow=classic;html=1;rounded=0;entryX=0;entryY=0.5;entryDx=0;entryDy=0;" edge="1" parent="1" target="fN71p4ZlffjuJ4oiOG8y-34">
          <mxGeometry relative="1" as="geometry">
            <mxPoint x="160" y="560" as="sourcePoint" />
            <mxPoint x="240" y="550" as="targetPoint" />
          </mxGeometry>
        </mxCell>
        <mxCell id="fN71p4ZlffjuJ4oiOG8y-31" value="YES" style="edgeLabel;resizable=0;html=1;;align=center;verticalAlign=middle;" connectable="0" vertex="1" parent="fN71p4ZlffjuJ4oiOG8y-30">
          <mxGeometry relative="1" as="geometry" />
        </mxCell>
        <mxCell id="fN71p4ZlffjuJ4oiOG8y-34" value="Submit Leave&lt;br&gt;Request" style="rounded=1;whiteSpace=wrap;html=1;" vertex="1" parent="1">
          <mxGeometry x="240" y="530" width="120" height="60" as="geometry" />
        </mxCell>
        <mxCell id="fN71p4ZlffjuJ4oiOG8y-35" value="" style="endArrow=classic;html=1;rounded=0;entryX=0;entryY=0.5;entryDx=0;entryDy=0;" edge="1" parent="1" target="fN71p4ZlffjuJ4oiOG8y-37">
          <mxGeometry width="50" height="50" relative="1" as="geometry">
            <mxPoint x="360" y="559.5" as="sourcePoint" />
            <mxPoint x="420" y="559.5" as="targetPoint" />
          </mxGeometry>
        </mxCell>
        <mxCell id="fN71p4ZlffjuJ4oiOG8y-37" value="Approve/&lt;br&gt;Reject" style="rhombus;whiteSpace=wrap;html=1;" vertex="1" parent="1">
          <mxGeometry x="440" y="520" width="80" height="80" as="geometry" />
        </mxCell>
        <mxCell id="fN71p4ZlffjuJ4oiOG8y-38" value="" style="endArrow=classic;html=1;rounded=0;" edge="1" parent="1">
          <mxGeometry relative="1" as="geometry">
            <mxPoint x="480" y="600" as="sourcePoint" />
            <mxPoint x="480" y="680" as="targetPoint" />
          </mxGeometry>
        </mxCell>
        <mxCell id="fN71p4ZlffjuJ4oiOG8y-39" value="NO" style="edgeLabel;resizable=0;html=1;;align=center;verticalAlign=middle;" connectable="0" vertex="1" parent="fN71p4ZlffjuJ4oiOG8y-38">
          <mxGeometry relative="1" as="geometry" />
        </mxCell>
        <mxCell id="fN71p4ZlffjuJ4oiOG8y-44" value="Mark&lt;br&gt;Attendance" style="rounded=1;whiteSpace=wrap;html=1;" vertex="1" parent="1">
          <mxGeometry x="60" y="400" width="120" height="60" as="geometry" />
        </mxCell>
        <mxCell id="fN71p4ZlffjuJ4oiOG8y-45" value="View Leave&lt;br&gt;request" style="rounded=1;whiteSpace=wrap;html=1;" vertex="1" parent="1">
          <mxGeometry x="420" y="400" width="120" height="60" as="geometry" />
        </mxCell>
        <mxCell id="fN71p4ZlffjuJ4oiOG8y-46" value="" style="endArrow=classic;html=1;rounded=0;entryX=0.5;entryY=0;entryDx=0;entryDy=0;exitX=0.5;exitY=1;exitDx=0;exitDy=0;" edge="1" parent="1" source="fN71p4ZlffjuJ4oiOG8y-45" target="fN71p4ZlffjuJ4oiOG8y-37">
          <mxGeometry width="50" height="50" relative="1" as="geometry">
            <mxPoint x="370" y="500" as="sourcePoint" />
            <mxPoint x="420" y="450" as="targetPoint" />
          </mxGeometry>
        </mxCell>
        <mxCell id="fN71p4ZlffjuJ4oiOG8y-47" value="Manager / Hr&lt;div&gt;login&lt;/div&gt;" style="shape=parallelogram;perimeter=parallelogramPerimeter;whiteSpace=wrap;html=1;fixedSize=1;" vertex="1" parent="1">
          <mxGeometry x="420" y="280" width="120" height="60" as="geometry" />
        </mxCell>
        <mxCell id="fN71p4ZlffjuJ4oiOG8y-50" value="" style="endArrow=classic;html=1;rounded=0;exitX=0.5;exitY=1;exitDx=0;exitDy=0;" edge="1" parent="1">
          <mxGeometry relative="1" as="geometry">
            <mxPoint x="119.5" y="340" as="sourcePoint" />
            <mxPoint x="120" y="400" as="targetPoint" />
            <Array as="points" />
          </mxGeometry>
        </mxCell>
        <mxCell id="fN71p4ZlffjuJ4oiOG8y-51" value="login" style="edgeLabel;resizable=0;html=1;;align=center;verticalAlign=middle;" connectable="0" vertex="1" parent="fN71p4ZlffjuJ4oiOG8y-50">
          <mxGeometry relative="1" as="geometry" />
        </mxCell>
      </root>
    </mxGraphModel>
  </diagram>
</mxfile>
